<?xml version="1.0" encoding="UTF-8"?><svg id="Layer_1" xmlns="http://www.w3.org/2000/svg" viewBox="0 0 64 37.13"><defs><style>.cls-1{fill:#fff;}</style></defs><path class="cls-1" d="M64,36.17c-2.33,.59-3.77,.03-5.06-1.91l-9.19-12.71-1.33-1.76-10.73,14.51c-1.23,1.75-2.51,2.51-4.8,1.89l13.74-18.44L33.84,1.08c2.2-.43,3.72-.21,5.07,1.76l9.53,12.87L58.04,2.91c1.23-1.75,2.55-2.41,4.76-1.77l-4.96,6.58-6.72,8.75c-.8,1-.69,1.68,.05,2.65l12.83,17.05ZM.02,17.43l1.12-5.53C4.2,.96,16.74-3.58,25.39,3.18c5.05,3.98,6.31,9.6,6.06,15.9H2.96c-.43,11.34,7.73,18.18,18.14,14.69,3.65-1.23,5.8-4.08,6.88-7.66,.55-1.79,1.45-2.07,3.13-1.56-.86,4.47-2.8,8.21-6.9,10.55-6.13,3.5-14.87,2.37-19.47-2.5C2,29.78,.87,26.2,.36,22.38c-.08-.63-.24-1.23-.36-1.84,.01-1.03,.02-2.07,.02-3.1H.02Zm3-.76H28.76c-.17-8.2-5.27-14.02-12.25-14.07-7.66-.06-13.16,5.63-13.49,14.07Z"/></svg>