<?xml version="1.0" encoding="UTF-8"?><svg id="svg2948" xmlns="http://www.w3.org/2000/svg" viewBox="0 0 248.03 86.42"><defs><style>.cls-1{fill:#fff;fill-rule:evenodd;}</style></defs><g id="layer1"><path id="path2838" class="cls-1" d="M13.6,42.28c-.04,8.2,5.97,13.08,15.56,10.86V31.41c-9.71-2.96-15.52,3.03-15.56,10.86M29.46,0h13.21V62.53c-12.66,2.07-24.79,3.38-33.47-1.47C-1.97,54.82-2.87,34.97,5.97,26.13c4.48-4.48,13.51-7.64,23.19-5.58V.88c-.03-.42-.05-.83,.29-.88"/><path id="path2840" class="cls-1" d="M64.1,13.8h-13.21V0h13.21s0,13.8,0,13.8Z"/><path id="path2844" class="cls-1" d="M222.63,53.73c14.4,5.6,16-25.78,1.47-22.9-9.02,1.79-8.73,20.08-1.47,22.9m.59-33.76c11-1.18,19.3,3.68,22.61,11.16,5.65,12.76-.31,27.4-9.39,31.71-4.71,2.23-9.64,2.44-14.09,2.05-13.77-1.2-22.45-15.23-17.61-30.83,.76-2.44,1.61-3.93,2.06-4.7,2.99-5.09,8.04-8.5,16.44-9.39"/><path id="path2848" class="cls-1" d="M82.3,48.74c-3.65,6.14,5.53,7.61,11.45,5.87v-9.1c-4.55,.64-9.73,.34-11.45,3.23m23.19,14.39c-10.91,.63-27.5,4.35-33.47-2.94-3.51-4.28-3.13-12.44,0-16.44,4.05-5.17,12.88-6.3,20.84-7.05,.72-1.78,.24-4.68-.59-5.87-7.29-1.86-14.53,1.02-19.67,3.23v-10.27c7.76-3.57,25.74-7.32,31.12,.88,2.82,4.31,1.76,11.82,1.76,18.5,0,0,0,19.96,0,19.96Z"/><path id="path2852" class="cls-1" d="M151.88,63.71h-13.21v-17.03c0-5.61,.91-12.72-2.06-14.97-2.32-1.77-7.82-.88-11.16,0V63.71h-13.21V22.9c13.51-3.51,37.88-7.27,39.63,9.69,.86,8.36-.64,20.9,0,31.12"/><path id="path2856" class="cls-1" d="M171.55,49.62c2.22,3.6,8.24,4.95,13.21,2.64-.27-6.87-.37-13.92-.29-21.14-11.42-3.02-18.22,9.92-12.92,18.5m33.17-27.89c-1.18,3.52-2.9,6.5-4.4,9.69-1.36,.3-2.54-.54-3.23,0-.3,14.31,3.05,33.71-2.64,44.04-3.43,6.22-9.73,10.21-19.38,10.86-7.02,.48-12.48-.67-17.61-2.64v-12.33c6.03,3.52,21.25,6.39,25.54-.88,1.26-2.14,1.18-4.35,1.76-7.63-2.76,.14-5.44,1.42-8.81,1.47-13.85,.18-22.41-10.84-19.08-26.13,1.29-5.91,4.75-10.68,9.4-13.5,9.64-5.88,24.46-5.43,38.46-2.94"/><path id="path2860" class="cls-1" d="M64.1,20.79c-.01,9.73-.01,16.72-.01,28.54-.56,11.61-.43,20.86-4.68,26.42-.84,1.1-2.62,2.69-4.11,3.82-1.25,.94-3.64,2.85-4.99,2.94-1.36,.08-4.87-1.89-6.46-2.64-2.08-.98-4.01-2.29-6.17-2.94,5.03-3.11,9.8-5.45,11.74-11.74,1.69-5.47,1.47-13.41,1.47-21.14s.03-16.51,.03-23.25h13.18Z"/></g></svg>