<?xml version="1.0" encoding="UTF-8"?><svg id="Layer_1" xmlns="http://www.w3.org/2000/svg" viewBox="0 0 206.56 124.02"><defs><style>.cls-1{fill:#fff;}</style></defs><g id="Page-1"><g id="Black-Next.js"><g id="next-black"><g id="EXT-_-Type-something"><path id="EXT" class="cls-1" d="M48.74,32.35h38.96v3.08H52.31v23.19h33.28v3.08H52.31v25.46h35.79v3.08H48.74V32.35Zm42.45,0h4.14l18.34,25.46,18.75-25.46L157.92,0l-41.9,60.49,21.59,29.76h-4.3l-19.64-27.09-19.72,27.09h-4.22l21.75-29.76-20.29-28.14Zm47.97,3.08v-3.08h44.4v3.08h-20.45v54.82h-3.57V35.43h-20.37Z"/><polygon id="Type-something" class="cls-1" points="0 32.35 4.46 32.35 66.02 124.02 40.58 90.25 3.73 36.72 3.57 90.25 0 90.25 0 32.35"/></g><path id="_.JS" class="cls-1" d="M183.19,86.24c.74,0,1.28-.56,1.28-1.29s-.54-1.29-1.28-1.29-1.28,.56-1.28,1.29,.55,1.29,1.28,1.29Zm3.51-3.39c0,2.15,1.55,3.55,3.82,3.55,2.41,0,3.87-1.45,3.87-3.96v-8.84h-1.95v8.83c0,1.39-.7,2.14-1.95,2.14-1.11,0-1.87-.69-1.89-1.72h-1.91Zm10.24-.11c.14,2.23,2.01,3.66,4.79,3.66,2.97,0,4.83-1.5,4.83-3.89,0-1.88-1.06-2.92-3.63-3.51l-1.38-.34c-1.63-.38-2.29-.89-2.29-1.78,0-1.13,1.02-1.86,2.56-1.86s2.47,.72,2.65,1.87h1.89c-.11-2.1-1.97-3.58-4.52-3.58-2.74,0-4.56,1.48-4.56,3.7,0,1.83,1.03,2.93,3.3,3.45l1.62,.39c1.66,.39,2.39,.96,2.39,1.91,0,1.11-1.15,1.91-2.71,1.91-1.68,0-2.84-.75-3.01-1.94h-1.93Z"/></g></g></g></svg>